<?xml version="1.0" standalone="no"?>
<!DOCTYPE svg PUBLIC "-//W3C//DTD SVG 20010904//EN"
 "http://www.w3.org/TR/2001/REC-SVG-20010904/DTD/svg10.dtd">
<svg version="1.0" xmlns="http://www.w3.org/2000/svg"
 width="672.000000pt" height="672.000000pt" viewBox="0 0 672.000000 672.000000"
 preserveAspectRatio="xMidYMid meet">
<metadata>
Created by potrace 1.14, written by Peter Selinger 2001-2017
</metadata>
<g transform="translate(0.000000,672.000000) scale(0.100000,-0.100000)"
fill="#000000" stroke="none">
<path d="M2398 6708 c-3 -7 -1 -29 2 -50 4 -21 5 -40 2 -43 -7 -7 -5 -102 2
-114 4 -5 2 -12 -4 -16 -6 -4 -8 -10 -5 -15 3 -4 5 -32 5 -62 0 -51 0 -71 0
-103 0 -8 0 -44 -1 -79 -1 -35 2 -69 5 -74 3 -6 2 -12 -2 -14 -5 -1 -5 -16 -1
-33 8 -28 12 -30 54 -30 25 0 45 2 45 5 0 3 37 4 82 2 132 -4 188 -3 198 3 5
3 11 1 14 -3 3 -5 25 -6 48 -3 24 4 57 4 73 1 17 -3 49 -3 73 1 23 3 45 3 47
-1 2 -4 24 -4 47 -1 24 4 57 4 73 1 17 -3 49 -3 73 1 23 3 42 3 42 0 0 -7 78
-6 85 1 3 3 24 2 48 -1 23 -4 56 -4 72 -1 17 3 49 3 73 -1 23 -3 45 -2 48 3 3
4 10 6 15 3 5 -3 37 -6 71 -5 63 1 115 0 153 -4 11 -1 35 1 53 5 17 4 34 3 37
-1 3 -4 21 -4 40 0 19 4 37 4 40 0 3 -4 21 -4 40 0 19 4 37 4 40 0 3 -4 21 -4
40 0 19 4 37 4 40 0 3 -4 21 -4 40 0 19 4 35 5 35 1 0 -10 69 0 76 11 3 5 5
41 4 81 -1 40 -1 83 0 97 1 14 1 31 1 38 -2 21 -2 35 0 128 1 50 -1 96 -4 101
-3 5 -2 15 3 22 4 8 4 27 0 42 -5 16 -5 31 0 34 4 3 4 20 0 39 -4 19 -5 37 -2
40 3 4 -427 6 -955 6 -749 0 -962 -3 -965 -12z"/>
<path d="M3337 5764 c-3 -3 -52 -7 -109 -9 -147 -6 -210 -12 -350 -36 -95 -16
-138 -24 -171 -35 -12 -4 -33 -8 -47 -10 -14 -1 -26 -3 -27 -4 -2 -1 -6 -3
-10 -4 -5 -1 -39 -11 -78 -23 -38 -12 -73 -23 -77 -23 -13 -2 -161 -57 -218
-81 -89 -38 -365 -179 -368 -189 -2 -6 -8 -10 -13 -10 -21 0 -226 -143 -333
-232 -22 -18 -55 -46 -75 -63 -20 -16 -86 -80 -147 -141 -322 -323 -561 -719
-699 -1154 -30 -95 -73 -263 -80 -315 -4 -22 -8 -48 -11 -57 -7 -25 -11 -47
-19 -113 -4 -33 -9 -73 -12 -90 -8 -58 -11 -471 -3 -540 5 -38 11 -95 14 -125
3 -30 8 -66 11 -80 2 -13 7 -42 10 -65 4 -22 10 -56 15 -75 5 -19 11 -46 14
-60 11 -54 27 -116 33 -130 3 -8 8 -23 9 -32 8 -37 76 -234 85 -243 5 -5 9
-16 9 -25 0 -23 150 -322 210 -420 82 -131 199 -292 283 -388 35 -41 277 -281
299 -297 7 -5 29 -23 49 -40 59 -49 70 -58 159 -121 153 -110 370 -233 530
-298 36 -15 79 -33 95 -40 95 -41 309 -106 430 -130 265 -52 346 -60 610 -61
192 0 264 4 395 20 52 7 190 32 215 39 11 3 68 15 100 21 11 2 21 4 23 5 1 2
5 3 10 4 81 21 275 86 286 97 6 5 17 9 26 9 10 0 32 8 51 17 19 10 39 18 45
19 22 3 257 126 346 180 100 60 232 153 313 218 180 146 415 391 505 526 8 12
20 28 25 34 70 80 243 386 317 561 39 91 103 275 123 350 12 45 12 45 15 48 1
1 3 13 4 27 2 14 6 35 10 47 7 22 14 50 22 93 2 14 7 36 9 50 30 157 40 285
40 510 -1 212 -7 306 -30 450 -20 122 -24 143 -51 242 -14 51 -26 102 -28 113
-16 80 -131 364 -211 520 -64 124 -195 337 -225 365 -3 3 -22 28 -42 56 l-37
50 225 225 c123 123 224 227 224 230 0 16 -271 297 -365 379 -92 79 -53 99
-308 -155 -124 -124 -230 -225 -235 -225 -5 0 -15 7 -22 16 -18 21 -176 134
-188 134 -6 0 -12 4 -14 9 -4 11 -131 87 -248 148 -108 57 -265 124 -383 164
-50 17 -99 34 -107 37 -8 3 -24 7 -35 9 -27 6 -38 9 -55 16 -17 6 -176 42
-230 51 -19 3 -44 8 -56 10 -12 2 -45 7 -75 11 -30 3 -66 8 -80 10 -14 3 -88
7 -163 10 -76 3 -142 7 -146 10 -4 2 -10 2 -13 -1z m136 -649 c85 -3 185 -12
232 -21 11 -3 38 -7 59 -9 21 -3 42 -8 46 -10 4 -2 22 -7 41 -10 176 -30 466
-145 649 -258 36 -22 74 -45 85 -51 29 -16 204 -147 240 -179 62 -56 191 -187
225 -227 19 -23 40 -47 46 -54 69 -74 281 -408 289 -456 0 -3 5 -14 11 -25 6
-11 21 -47 34 -80 13 -33 27 -64 32 -70 4 -5 8 -19 8 -31 0 -13 4 -25 9 -28 5
-3 11 -18 14 -33 3 -16 15 -62 27 -103 12 -41 23 -86 26 -100 2 -14 7 -36 10
-50 10 -44 14 -64 19 -105 3 -22 9 -62 12 -90 9 -67 9 -416 1 -485 -18 -141
-17 -134 -63 -343 -2 -9 -6 -21 -9 -25 -3 -5 -7 -19 -10 -33 -11 -57 -73 -214
-136 -344 -71 -146 -191 -336 -265 -422 -5 -6 -32 -36 -58 -67 -167 -192 -408
-385 -622 -496 -44 -23 -84 -45 -90 -48 -39 -25 -365 -146 -365 -136 0 4 -7 1
-15 -6 -8 -7 -15 -10 -15 -7 0 3 -15 1 -32 -4 -18 -6 -42 -12 -53 -14 -57 -13
-125 -25 -165 -30 -25 -3 -58 -8 -75 -11 -16 -3 -73 -7 -125 -9 -52 -2 -97 -5
-100 -6 -3 -1 -8 -1 -12 0 -3 0 -62 3 -130 6 -67 3 -134 7 -148 9 -14 2 -47 8
-75 12 -27 4 -57 8 -65 10 -8 1 -31 5 -50 9 -119 21 -346 95 -470 153 -30 14
-57 26 -60 27 -11 1 -166 89 -182 103 -10 8 -18 12 -18 8 0 -4 -18 6 -39 23
-21 17 -43 31 -49 31 -6 0 -12 3 -14 8 -1 4 -37 32 -78 63 -114 85 -245 208
-330 309 -19 23 -40 47 -45 54 -29 31 -135 176 -135 184 0 4 -8 17 -17 28 -19
21 -20 24 -70 114 -48 88 -57 105 -59 110 0 3 -13 32 -29 65 -90 195 -152 426
-183 675 -8 73 -8 411 0 480 16 121 20 149 39 235 11 50 22 98 24 108 25 115
165 442 239 562 14 22 33 53 42 69 9 16 20 34 25 40 5 6 33 43 62 82 56 76 56
76 119 148 48 55 141 148 185 186 137 118 241 194 388 280 50 29 92 53 95 53
3 0 43 18 90 40 47 22 90 40 95 42 9 2 22 6 63 22 9 3 20 7 25 8 4 2 9 4 12 5
3 1 8 3 13 5 4 1 14 5 22 8 23 10 242 64 286 72 22 3 55 8 74 11 19 3 51 7 70
10 19 3 84 7 144 9 60 3 111 7 114 10 3 2 9 2 14 -1 5 -4 51 -8 101 -9z"/>
<path d="M3349 4805 c-3 -2 -49 -7 -103 -10 -90 -5 -124 -9 -196 -20 -32 -6
-109 -22 -137 -29 -13 -3 -33 -8 -45 -11 -146 -32 -412 -152 -561 -253 -38
-26 -76 -51 -85 -57 -31 -20 -44 -36 -38 -50 3 -8 32 -55 66 -104 33 -50 60
-95 60 -101 0 -5 5 -10 10 -10 6 0 10 -7 10 -15 0 -8 4 -15 9 -15 5 0 14 -13
21 -30 7 -16 16 -30 21 -30 5 0 9 -4 9 -9 0 -6 40 -70 88 -143 48 -73 115
-176 149 -228 34 -52 66 -100 71 -105 5 -6 11 -16 13 -21 2 -6 49 -79 103
-161 l100 -151 18 23 c10 13 18 25 18 28 0 3 32 61 71 129 40 67 79 136 88
153 9 16 18 32 21 35 3 3 11 16 18 29 40 71 57 99 73 126 11 17 22 36 26 44 3
8 51 91 106 185 110 190 136 235 163 286 11 19 22 37 25 40 3 3 20 32 38 65
18 33 36 65 41 70 4 6 19 30 33 55 14 25 48 86 76 135 28 50 51 93 51 96 0 4
-19 9 -42 12 -90 12 -124 17 -148 22 -14 3 -70 7 -124 10 -54 3 -102 8 -106
10 -4 2 -9 3 -11 0z"/>
<path d="M4065 4595 c-19 -31 -35 -57 -35 -59 0 -3 -20 -39 -45 -80 -25 -42
-45 -81 -45 -85 0 -5 -3 -11 -8 -13 -6 -2 -133 -219 -270 -462 -13 -22 -31
-52 -39 -65 -8 -12 -29 -48 -45 -80 -17 -31 -36 -63 -42 -71 -7 -8 -18 -28
-26 -45 -8 -16 -17 -32 -20 -35 -7 -7 -40 -67 -40 -73 0 -3 8 -6 18 -5 38 0
270 -2 312 -3 58 -2 154 -1 160 1 3 2 9 2 14 1 13 -3 129 -3 141 -1 6 1 14 2
19 1 13 -3 129 -3 141 -1 6 1 14 2 19 1 11 -2 128 -3 141 -1 6 0 44 1 85 0 41
0 95 0 120 1 25 0 52 0 60 0 8 0 35 0 60 0 25 0 51 0 58 0 6 -1 18 -1 25 -2
13 -1 93 0 162 2 59 2 59 2 70 -1 6 -1 33 -2 62 -1 l51 1 -20 53 c-40 106
-127 274 -186 359 -17 26 -32 51 -32 56 0 6 -4 12 -8 14 -5 2 -31 32 -58 68
-68 91 -243 263 -344 338 -47 35 -93 70 -102 78 -10 7 -18 10 -18 6 0 -4 -4
-2 -8 4 -13 19 -265 154 -287 154 -2 0 -20 -25 -40 -55z"/>
<path d="M1933 4153 c-7 -3 -36 -35 -65 -71 -29 -37 -55 -69 -58 -72 -14 -13
-70 -102 -70 -110 0 -6 -4 -10 -9 -10 -5 0 -13 -10 -17 -22 -4 -13 -9 -25 -13
-28 -21 -18 -168 -340 -154 -340 3 0 1 -6 -4 -12 -11 -14 -59 -192 -74 -272
-31 -172 -32 -513 -2 -633 4 -19 12 -23 52 -23 25 0 60 -1 76 -1 17 -1 42 0
58 0 69 2 83 3 97 2 8 -1 26 -1 40 0 14 0 32 0 40 0 8 -1 26 -1 40 0 14 0 39
1 55 0 17 0 57 0 90 0 33 0 74 0 90 -1 17 -1 36 -2 43 -1 21 2 45 2 105 1 31
-1 62 2 67 5 6 3 10 2 10 -3 0 -5 19 -6 43 -2 23 3 53 3 66 0 14 -3 48 -3 76
0 28 3 62 3 76 -1 13 -3 33 -3 44 1 11 4 31 4 45 0 14 -3 44 -3 68 0 23 4 45
3 48 -2 3 -4 9 -6 14 -3 12 7 113 10 125 3 6 -3 17 -3 26 1 13 5 2 28 -63 126
-43 66 -109 167 -146 225 -37 58 -72 111 -79 118 -6 6 -15 21 -18 32 -3 11
-11 20 -16 20 -5 0 -9 6 -9 13 0 7 -9 23 -20 35 -11 12 -20 24 -20 26 0 3 -36
60 -80 127 -44 67 -80 124 -80 126 0 2 -5 9 -11 16 -5 7 -49 73 -97 147 -47
74 -89 137 -92 140 -3 3 -11 17 -19 33 -8 15 -18 27 -23 27 -4 0 -8 6 -8 13 0
8 -11 27 -25 43 -14 16 -25 32 -25 36 0 4 -40 67 -88 140 -49 73 -91 138 -93
144 -2 6 -10 9 -16 7z"/>
<path d="M3898 3202 c-33 -4 -35 -14 -7 -53 11 -16 17 -29 13 -29 -4 0 0 -8 8
-17 8 -10 22 -31 30 -48 8 -16 30 -59 50 -95 19 -36 55 -101 78 -145 24 -44
55 -102 70 -130 15 -27 51 -95 80 -150 29 -55 59 -107 67 -117 8 -9 15 -22 17
-30 1 -7 11 -29 22 -48 11 -19 31 -55 44 -80 13 -25 34 -63 46 -85 12 -22 41
-76 64 -120 38 -71 58 -108 120 -220 9 -16 43 -79 75 -140 78 -148 71 -142
111 -97 86 95 244 316 244 340 0 5 8 20 18 33 46 61 134 285 178 454 3 10 18
90 29 150 15 86 20 155 19 310 0 155 -4 207 -20 288 -6 29 0 28 -109 26 -27 0
-57 0 -65 0 -8 0 -35 0 -60 0 -25 0 -51 0 -57 0 -17 1 -37 2 -98 2 -127 1
-160 0 -165 -1 -3 -2 -9 -2 -14 -1 -11 2 -128 3 -141 1 -5 -1 -46 -1 -90 0
-252 5 -325 4 -325 -1 0 -3 -20 -3 -43 1 -24 3 -52 3 -62 0 -10 -3 -37 -4 -59
-1 -23 3 -53 5 -68 3z"/>
<path d="M3763 2478 c-33 -56 -95 -164 -138 -238 -43 -74 -103 -178 -133 -230
-172 -297 -241 -417 -357 -615 -211 -364 -218 -376 -213 -381 5 -4 94 -23 143
-29 17 -3 59 -9 95 -14 78 -11 475 -3 475 9 0 1 14 3 30 5 45 5 201 42 275 67
83 27 252 96 264 109 6 5 18 9 28 9 10 0 18 3 18 8 0 4 21 18 48 32 36 19 179
108 201 126 3 2 -37 78 -142 274 -16 30 -45 84 -65 120 -33 63 -64 119 -122
225 -15 28 -47 86 -70 130 -39 74 -64 120 -126 233 -13 23 -47 86 -75 140 -29
53 -57 103 -64 110 -10 11 -24 -6 -72 -90z"/>
<path d="M1590 2243 c-8 -3 -20 -6 -27 -8 -9 -3 -9 -11 2 -32 8 -15 15 -32 15
-37 0 -15 112 -241 121 -244 5 -2 9 -8 9 -14 0 -9 85 -143 100 -158 3 -3 18
-23 35 -45 71 -97 243 -269 340 -340 22 -17 42 -32 45 -35 31 -32 303 -188
356 -204 19 -6 28 4 70 76 27 46 53 92 57 103 4 11 11 22 15 25 4 3 16 21 26
40 10 19 33 60 51 90 248 427 355 614 355 621 0 5 4 9 9 9 5 0 11 8 15 18 7
21 39 76 56 97 19 23 -1 38 -47 36 -21 -1 -56 -2 -79 -3 -22 -1 -44 1 -50 4
-5 3 -18 2 -29 -2 -11 -4 -32 -4 -47 1 -16 4 -28 5 -28 1 0 -4 -16 -7 -35 -7
-19 0 -35 3 -35 7 0 4 -13 3 -30 -2 -17 -5 -32 -5 -35 0 -3 5 -16 5 -28 1 -12
-5 -34 -5 -49 0 -17 5 -28 4 -28 -2 0 -6 -5 -7 -10 -4 -6 4 -52 6 -103 6 -50
-1 -101 -1 -112 -1 -11 0 -31 0 -45 -1 -14 0 -32 0 -40 0 -8 1 -26 1 -40 0
-14 0 -32 0 -40 0 -8 1 -26 1 -40 0 -14 0 -32 0 -40 0 -8 1 -26 1 -40 0 -14 0
-32 0 -40 0 -8 1 -26 1 -40 0 -14 0 -32 0 -40 0 -8 1 -26 1 -40 0 -14 0 -31 0
-37 0 -22 2 -40 2 -107 0 -35 -1 -69 2 -75 5 -6 4 -11 4 -11 -1 0 -4 -19 -7
-42 -6 -81 5 -130 5 -135 -1 -3 -3 -13 -2 -22 3 -9 5 -23 6 -31 4z"/>
</g>
</svg>
